<svg id="logo" data-name="logo" xmlns="http://www.w3.org/2000/svg" viewBox="0 0 283.46 99.15"><defs><style>.cls-1{fill:#3d3c3b;}</style></defs><title>logo_vector_svg</title><path class="cls-1" d="M486.93,158.79A13.69,13.69,0,0,0,473.71,145a5.2,5.2,0,0,0-.58,0h-76.7l-1.55,6.48h78.26l.16,0a7.27,7.27,0,0,1,7.14,7.25,7.11,7.11,0,0,1-.27,1.85l-11.44,49a.82.82,0,0,1-.2.33,7.23,7.23,0,0,1-6.66,4.59l-.16,0H387.21a2.78,2.78,0,0,0-1.76.65l-18.54,17.41,3.77-14.76a2.81,2.81,0,0,0,.11-.67,2.49,2.49,0,0,0-2.51-2.62l-136.26,0a7.25,7.25,0,0,1-7.23-7.25c0-.26,0-.53.06-.78a1.39,1.39,0,0,1,0-.27l11.43-48.92a.87.87,0,0,1,.07-.19,7.21,7.21,0,0,1,6.62-5.52.5.5,0,0,1,.23-.06l101,0,1.57-6.54H243.2a7.29,7.29,0,0,0-1.23.11,13.62,13.62,0,0,0-11.8,9.93,7.44,7.44,0,0,0-.22.78l-11.43,48.9a6.64,6.64,0,0,0-.18,1.44,8.86,8.86,0,0,0-.06,1.09A13.77,13.77,0,0,0,232,221.08H362.4l-4.19,17.29a7.16,7.16,0,0,0-.12,1,4.69,4.69,0,0,0,7.77,3.56h0L389.79,221l71.9.06c.23,0,.48,0,.71,0a13.88,13.88,0,0,0,11.87-8,7.28,7.28,0,0,0,.78-2l11.44-48.94a13.55,13.55,0,0,0,.45-3.4" transform="translate(-218.27 -144.89)"/><path class="cls-1" d="M494.93,150.88h.67a1.4,1.4,0,0,0,1-.27.88.88,0,0,0,.31-.71.81.81,0,0,0-.42-.75,2,2,0,0,0-.9-.17h-.64Zm0,3.5h-1.69v-6.56H496a2.94,2.94,0,0,1,1.94.53,1.66,1.66,0,0,1,.64,1.34,1.56,1.56,0,0,1-1.59,1.68,1.88,1.88,0,0,1,.82.33,1.36,1.36,0,0,1,.51.63,2.32,2.32,0,0,1,.16.9v.59a1.65,1.65,0,0,0,.11.57H497a4.78,4.78,0,0,1-.11-1,2.14,2.14,0,0,0-.14-.8.92.92,0,0,0-.42-.37,3,3,0,0,0-1-.12h-.37Zm.88-8.21a5,5,0,0,0-2.06.46,5.35,5.35,0,0,0-1.32.95,4.88,4.88,0,0,0-1.07,1.5,4.61,4.61,0,0,0-.44,2,5,5,0,0,0,.67,2.45,4.5,4.5,0,0,0,1.8,1.82,5,5,0,0,0,2.43.65,4.88,4.88,0,0,0,2.42-.65,4.53,4.53,0,0,0,1.8-1.82,4.9,4.9,0,0,0,.46-3.85,5.93,5.93,0,0,0-.61-1.28,4.86,4.86,0,0,0-1-1.14,4.64,4.64,0,0,0-1.42-.82,4.77,4.77,0,0,0-1.61-.29m5.92,4.93a5.9,5.9,0,0,1-.43,2.23,5.45,5.45,0,0,1-1.18,1.85,6.21,6.21,0,0,1-1.7,1.24,6.15,6.15,0,0,1-5,.11,5.84,5.84,0,0,1-1.8-1.21,6.42,6.42,0,0,1-1.17-1.61,6.31,6.31,0,0,1-.59-2.63,6,6,0,0,1,1.15-3.53,6.56,6.56,0,0,1,1.2-1.21,5.92,5.92,0,0,1,1.66-.85,5.93,5.93,0,0,1,4.46.26,5.5,5.5,0,0,1,1.7,1.23,6,6,0,0,1,1.66,4.12" transform="translate(-218.27 -144.89)"/><path class="cls-1" d="M402.28,206.79l1.39-5.8h-.16c-2.15,3.63-6.91,7.33-11.13,7.33-7.76,0-11.13-3.55-9.59-10l9.33-38.8h13.41l-8.12,33.82c-.37,2.19-.24,4.14,2.34,4a4.94,4.94,0,0,0,4.82-4l8.13-33.82h13.41l-11.35,47.22Z" transform="translate(-218.27 -144.89)"/><path class="cls-1" d="M450.45,176.93c.67-2.78,1.87-7.76-2-7.76-3.63,0-5.3,3.8-6.4,8.35l-2.67,11.13c-1,4.06-1.26,8.78,2,8.7,4.31,0,5.38-5.14,6.1-8.19Zm-5-17.37-1.4,5.73h.18c3.74-4.73,8-6.92,12.67-7.09,8.86,0,9.36,8.78,7.57,16.2l-3.92,16.36c-1.93,8-6.08,17.22-15.94,17.55-2.38.09-6.35-1.34-8.35-6h-.18L432,217.41H418.56l14.38-57.85Z" transform="translate(-218.27 -144.89)"/><path class="cls-1" d="M260.91,159.56,259.59,165h.18a17,17,0,0,1,11.67-6.84c4.36-.24,7.89,2.29,8.45,6.25h.17c3.47-4.22,7.49-6.25,11.29-6.25,6.33,0,11.15,3.46,9.61,9.87l-9.3,38.71H278.25l8.11-33.73c.36-2.2,0-4.07-2.61-3.89a4.59,4.59,0,0,0-4.55,3.89l-8.12,33.73H257.66l8.1-33.73c.07-2,0-3.89-2.27-3.89-2.71,0-4.12,1.35-4.9,3.89l-8.11,33.73H237.08l11.34-47.22Z" transform="translate(-218.27 -144.89)"/><path class="cls-1" d="M325.18,183.85c-3,1.44-5.59,2.2-7.58,3.46a9.23,9.23,0,0,0-4.59,6.08c-.71,3,.55,5.07,3.76,5.07,4,0,5.8-4.13,6.62-7.17Zm-4,18.74c-4.27,3.72-7.63,5.73-12.93,5.73-7.6,0-11.09-5.14-9.28-12.65,2.58-10.73,9.2-14.09,15.57-16S326.8,177.09,328,172c.63-2.61-.34-4.88-3-4.88-4.89,0-5.69,3.37-6.91,7.33H304.64c2.26-11.81,11.26-16.29,22.05-16.29,13.25,0,17.08,4.06,14.6,14.43l-7,28.94a15.28,15.28,0,0,0-.16,5.23H321.1Z" transform="translate(-218.27 -144.89)"/><path class="cls-1" d="M351.95,154.92l2.4-10h13.4l-2.38,10ZM339.5,206.79l11.35-47.22h13.42l-11.35,47.22Z" transform="translate(-218.27 -144.89)"/><polygon class="cls-1" points="141.72 61.9 156.53 0 169.95 0 155.14 61.9 141.72 61.9"/><path class="cls-1" d="M341.83,228l-.58,2.63h3.55l-2.9,13.3h3.28l2.9-13.3h3.54l.57-2.63Zm-12.2,0L326.17,244h3l2.41-11.16h0L333.23,244H337L340.42,228h-3L335,238.94h0L333.41,228Zm-8.1,2.76h0l0,7.17h-3.19ZM312.38,244h3.4l1.49-3.37h4.32l0,3.37H325L324.19,228h-4ZM304.95,228l.27,15.94h4.22L316.62,228h-3.38l-5,11.78h-.07l.25-11.78Zm-9.88,0L291.61,244h9.3l.57-2.63h-6l.94-4.29h5.46l.57-2.62H297l.81-3.76h5.81l.56-2.63ZM290.14,244l.57-2.63h-5.8L287.8,228h-3.28L281.08,244ZM273.58,228,270.13,244h9.3l.57-2.63h-6l.93-4.29h5.46l.58-2.62h-5.47l.82-3.76h5.8l.56-2.63ZM257.47,244h3.27l1.46-6.74H264c1.31,0,1.73.75,1.49,2l-.56,3a2.79,2.79,0,0,0,0,1.68h3.54l0-.14c-.55-.31-.43-1.18-.12-2.85.71-3.36.62-4.57-1.54-4.86v0c1.93-.38,3.09-1.8,3.57-3.92.59-2.73-.74-4.11-3.43-4.11h-6.05Zm6.21-13.56h1.54c1.49,0,2.13.73,1.81,2.21a2.72,2.72,0,0,1-3,2.39h-1.37ZM244.52,228,241.07,244h9.31l.55-2.63h-6l.92-4.29h5.46l.57-2.62h-5.46l.83-3.76H253l.57-2.63Zm-11.28,8.77h1.41c1.44,0,2.4.54,2,2.38a2.78,2.78,0,0,1-3.14,2.41h-1.27Zm1.39-6.39h1.19c1.61,0,2.25.56,1.91,2.07s-1.28,2.1-3.08,2.1h-.92ZM228.41,244h5.53c3.83,0,5.54-2.18,6.08-4.66.47-2.13-.42-3.47-2.14-3.72v0a4.4,4.4,0,0,0,3.21-3.49c.66-3.05-1-4-3.74-4h-5.48Z" transform="translate(-218.27 -144.89)"/></svg>